<svg width="512" height="512" viewBox="0 0 512 512" fill="none" xmlns="http://www.w3.org/2000/svg">
<rect width="512" height="512" rx="50" fill="white"/>
<path d="M313.38 176.758C290.026 155.755 186.262 187.82 139.508 202.305C125.29 206.649 120.631 194.433 132.133 182.814C205.685 107.337 347.879 99.5416 367.586 116.794C387.294 134.047 392.539 278.363 324.482 360.08C314.179 372.54 301.53 369.187 304.456 354.535C314.191 305.287 335.935 197.201 313.38 176.758Z" fill="black"/>
<path d="M229.876 268.227C214.293 253.875 144.055 274.673 112.408 284.069C102.784 286.886 99.7388 278.609 107.589 270.865C157.797 220.548 253.76 216.425 266.913 228.218C280.067 240.011 282.453 337.384 235.901 391.954C228.853 400.275 220.349 397.913 222.439 388.054C229.398 354.918 244.925 282.194 229.876 268.227Z" fill="url(#paint0_linear_2158_356)" fill-opacity="0.7"/>
<defs>
<linearGradient id="paint0_linear_2158_356" x1="182.597" y1="229.368" x2="44.5815" y2="461.357" gradientUnits="userSpaceOnUse">
<stop/>
<stop offset="1" stop-opacity="0"/>
</linearGradient>
</defs>
</svg>
